<svg width="250" height="58" viewBox="0 0 250 58" fill="none" xmlns="http://www.w3.org/2000/svg">
<path d="M16.9123 6.10795L20.0018 11.3636H19.8864H13.4943C11.5323 11.3636 9.94318 9.7745 9.94318 7.8125C9.94318 5.8505 11.5323 4.26136 13.4943 4.26136H13.6896C15.0124 4.26136 16.2464 4.96271 16.9123 6.10795ZM5.68182 7.8125C5.68182 9.09091 5.99254 10.2983 6.53409 11.3636H2.84091C1.26953 11.3636 0 12.6332 0 14.2045V19.8864C0 21.4577 1.26953 22.7273 2.84091 22.7273H42.6136C44.185 22.7273 45.4545 21.4577 45.4545 19.8864V14.2045C45.4545 12.6332 44.185 11.3636 42.6136 11.3636H38.9205C39.462 10.2983 39.7727 9.09091 39.7727 7.8125C39.7727 3.49787 36.2749 0 31.9602 0H31.7649C28.9329 0 26.305 1.50036 24.8668 3.94176L22.7273 7.59055L20.5877 3.95064C19.1495 1.50036 16.5217 0 13.6896 0H13.4943C9.17969 0 5.68182 3.49787 5.68182 7.8125ZM35.5114 7.8125C35.5114 9.7745 33.9222 11.3636 31.9602 11.3636H25.5682H25.4528L28.5423 6.10795C29.217 4.96271 30.4421 4.26136 31.7649 4.26136H31.9602C33.9222 4.26136 35.5114 5.8505 35.5114 7.8125ZM2.84091 25.5682V41.1932C2.84091 43.5458 4.74964 45.4545 7.10227 45.4545H19.8864V25.5682H2.84091ZM25.5682 45.4545H38.3523C40.7049 45.4545 42.6136 43.5458 42.6136 41.1932V25.5682H25.5682V45.4545Z" fill="white"/>
<g opacity="0.9">
<path d="M68.0688 36.9779L67.4474 38.6127C67.0012 39.7675 66.7782 40.5808 66.7782 41.0525C66.7782 41.8495 67.0411 42.4107 67.5669 42.736C68.0927 43.0451 68.9531 43.1996 70.1481 43.1996V45.9078H59.4407V43.1996C61.4802 43.1996 63.1931 41.4266 64.5793 37.8807L74.5458 12.2378H77.3422L87.5 37.8563C88.5038 40.3937 89.412 41.9227 90.2246 42.4432C91.0373 42.9475 91.818 43.1996 92.5669 43.1996V45.9078H76.4818V43.1996C77.9318 43.1996 78.832 43.0613 79.1826 42.7848C79.5331 42.492 79.7084 42.126 79.7084 41.6869C79.7084 41.2965 79.565 40.7841 79.2782 40.1498L78.9675 39.3934L78.0353 36.9779H68.0688ZM69.0965 34.1721H76.9598L72.9206 24.2907L69.0965 34.1721Z" fill="white"/>
<path d="M104.039 43.9071V51.8611C104.039 53.0647 104.222 53.9024 104.589 54.3741C104.971 54.8458 105.824 55.0817 107.146 55.0817H107.911V57.6923H93.0449V55.0817C94.4152 55.0817 95.2995 54.8621 95.6979 54.4229C96.1122 54 96.3193 53.1461 96.3193 51.8611V32.7326C96.3193 31.4964 96.1281 30.6506 95.7457 30.1951C95.3633 29.7234 94.463 29.4876 93.0449 29.4876V26.9013L103.418 25.1202C103.736 26.2751 103.896 27.4381 103.896 28.6092C105.027 27.4381 106.214 26.5679 107.457 25.9986C108.716 25.413 110.03 25.1202 111.401 25.1202C113.966 25.1202 116.165 26.0962 117.997 28.0481C119.83 29.9837 120.746 32.5293 120.746 35.6848C120.746 38.938 119.774 41.5893 117.83 43.6388C115.902 45.6882 113.623 46.713 110.994 46.713C109.767 46.713 108.572 46.4771 107.409 46.0054C106.262 45.5337 105.139 44.8343 104.039 43.9071ZM104.039 40.9549C104.677 41.6381 105.346 42.1586 106.047 42.5164C106.764 42.858 107.505 43.0288 108.27 43.0288C109.72 43.0288 110.803 42.4514 111.52 41.2965C112.237 40.1254 112.596 38.3768 112.596 36.0508C112.596 33.6109 112.261 31.7892 111.592 30.5855C110.923 29.3656 109.919 28.7556 108.58 28.7556C107.656 28.7556 106.764 29.0891 105.903 29.756C105.059 30.4066 104.438 31.1304 104.039 31.9274V40.9549Z" fill="white"/>
<path d="M134.154 43.9071V51.8611C134.154 53.0647 134.337 53.9024 134.704 54.3741C135.086 54.8458 135.939 55.0817 137.261 55.0817H138.026V57.6923H123.16V55.0817C124.53 55.0817 125.414 54.8621 125.813 54.4229C126.227 54 126.434 53.1461 126.434 51.8611V32.7326C126.434 31.4964 126.243 30.6506 125.86 30.1951C125.478 29.7234 124.578 29.4876 123.16 29.4876V26.9013L133.533 25.1202C133.851 26.2751 134.011 27.4381 134.011 28.6092C135.142 27.4381 136.329 26.5679 137.572 25.9986C138.83 25.413 140.145 25.1202 141.515 25.1202C144.081 25.1202 146.28 26.0962 148.112 28.0481C149.944 29.9837 150.86 32.5293 150.86 35.6848C150.86 38.938 149.888 41.5893 147.945 43.6388C146.017 45.6882 143.738 46.713 141.109 46.713C139.882 46.713 138.687 46.4771 137.524 46.0054C136.377 45.5337 135.253 44.8343 134.154 43.9071ZM134.154 40.9549C134.791 41.6381 135.46 42.1586 136.162 42.5164C136.879 42.858 137.62 43.0288 138.384 43.0288C139.834 43.0288 140.918 42.4514 141.635 41.2965C142.352 40.1254 142.71 38.3768 142.71 36.0508C142.71 33.6109 142.376 31.7892 141.707 30.5855C141.037 29.3656 140.033 28.7556 138.695 28.7556C137.771 28.7556 136.879 29.0891 136.018 29.756C135.174 30.4066 134.552 31.1304 134.154 31.9274V40.9549Z" fill="white"/>
<path d="M163.002 46.2494L156.166 32.4154C155.274 30.6262 154.621 29.5282 154.207 29.1216C153.792 28.715 153.195 28.5116 152.414 28.5116V25.9254H165.201V28.5116C163.719 28.5116 162.978 28.837 162.978 29.4876C162.978 29.6502 163.177 30.1219 163.576 30.9027L167.758 39.4666L172.084 30.5611C172.307 30.0894 172.419 29.7478 172.419 29.5364C172.419 28.8532 171.75 28.5116 170.411 28.5116V25.9254H177.916V28.5116C177.167 28.5116 176.577 28.7312 176.147 29.1704C175.717 29.6096 174.96 30.9271 173.877 33.123L167.376 46.2494H163.002Z" fill="white"/>
<path d="M187.189 35.6848C187.189 38.3361 187.628 40.3287 188.504 41.6625C189.396 42.9963 190.727 43.6632 192.495 43.6632C194.375 43.6632 196.104 42.6872 197.682 40.7353L199.904 42.1016C198.996 43.4354 197.69 44.5415 195.985 45.4199C194.296 46.2819 192.424 46.713 190.368 46.713C187.213 46.713 184.512 45.737 182.266 43.7851C180.019 41.817 178.896 39.1657 178.896 35.8312C178.896 32.4967 179.979 29.878 182.146 27.9749C184.329 26.0718 186.95 25.1202 190.01 25.1202C193.085 25.1202 195.602 25.9986 197.562 27.7553C199.538 29.4957 200.526 32.1389 200.526 35.6848H187.189ZM187.165 33.2206H193.212C193.117 29.6258 192.089 27.8285 190.129 27.8285C189.141 27.8285 188.4 28.2758 187.906 29.1704C187.412 30.065 187.165 31.4151 187.165 33.2206Z" fill="white"/>
<path d="M214.364 32.1958V40.1254C214.364 41.264 214.532 42.0772 214.866 42.5652C215.201 43.0532 215.798 43.3053 216.659 43.3216V45.9078H203.274V43.3216C204.661 43.3216 205.545 43.102 205.927 42.6628C206.31 42.2074 206.501 41.3616 206.501 40.1254V33.2938C206.501 32.0576 206.31 31.2118 205.927 30.7563C205.561 30.2846 204.677 30.0488 203.274 30.0488V27.4625L213.886 25.6814C214.157 26.3158 214.317 27.2917 214.364 28.6092C215.416 27.4381 216.515 26.5679 217.663 25.9986C218.826 25.413 220.029 25.1202 221.272 25.1202C223.502 25.1202 225.255 25.7546 226.53 27.0233C227.804 28.2758 228.442 30 228.442 32.1958V40.1254C228.442 41.3453 228.633 42.183 229.015 42.6384C229.414 43.0939 230.266 43.3216 231.573 43.3216V45.9078H218.26V43.3216C218.929 43.289 219.487 43.0939 219.933 42.736C220.395 42.3782 220.626 41.5079 220.626 40.1254V32.8058C220.626 31.472 220.443 30.5611 220.077 30.0732C219.726 29.5852 219.216 29.3412 218.547 29.3412C217.878 29.3412 217.193 29.577 216.491 30.0488C215.79 30.5205 215.081 31.2361 214.364 32.1958Z" fill="white"/>
<path d="M243.404 28.5604V38.9786C243.404 40.7191 243.515 41.8739 243.738 42.4432C243.961 42.9963 244.423 43.2728 245.124 43.2728C246.176 43.2728 247.021 42.6059 247.658 41.2721L250 42.0772C248.789 45.1677 246.2 46.713 242.232 46.713C240.05 46.713 238.408 46.1762 237.309 45.1027C236.209 44.0129 235.66 42.3863 235.66 40.223V28.5604H232.816V25.9254L233.413 25.9498C235.341 25.9498 236.99 25.3236 238.361 24.0711C239.731 22.8186 240.559 21.2246 240.846 19.289H243.404V25.9254H249.283V28.5604H243.404Z" fill="white"/>
</g>
</svg>
